# xmcd
#
# Track frame offsets:
#	150
#	14042
#	28012
#	48556
#	70998
#	86528
#	103081
#	117829
#	136782
#	152782
#	165383
#	185666
#	204842
#
# Disc length: 3036 seconds
#
# Revision: 0
# Processed by: cddbd v1.5.2PL0 Copyright (c) Steve Scherf et al.
# Submitted via: audiograbber 1.83.01
#
DISCID=ac0bda0d
DTITLE=Michael Buble - Call me irresponsible
DYEAR=2007
DGENRE=Blues
TTITLE0=The best is yet to come
TTITLE1=It had better be tonight
TTITLE2=Me and Mrs. Jones
TTITLE3=I'm your man
TTITLE4=Comin' home,baby
TTITLE5=Lost
TTITLE6=Call me irresponsible
TTITLE7=Wonderful tonight
TTITLE8=Everything
TTITLE9=I've got the world on a string
TTITLE10=Always on my mind
TTITLE11=That's life
TTITLE12=Dream
EXTD=
EXTT0=
EXTT1=
EXTT2=
EXTT3=
EXTT4=
EXTT5=
EXTT6=
EXTT7=
EXTT8=
EXTT9=
EXTT10=
EXTT11=
EXTT12=
PLAYORDER=
